<?xml version="1.0" encoding="utf-8"?>
<!-- Generator: Adobe Illustrator 16.0.0, SVG Export Plug-In . SVG Version: 6.00 Build 0)  -->
<!DOCTYPE svg PUBLIC "-//W3C//DTD SVG 1.1//EN" "http://www.w3.org/Graphics/SVG/1.1/DTD/svg11.dtd">
<svg version="1.1" id="Layer_1" xmlns="http://www.w3.org/2000/svg" xmlns:xlink="http://www.w3.org/1999/xlink" x="0px" y="0px"
	 width="1244.197px" height="1050.998px" viewBox="0 0 1244.197 1050.998" enable-background="new 0 0 1244.197 1050.998"
	 xml:space="preserve">
<path opacity="0.7" fill="#FFFFFF" d="M1241.678,348.951C1218.814,136.09,1026.362-18.979,809.74,1.88
	C591.651,22.878,431.646,214.243,452.347,429.325c2.938,30.44,9.336,59.748,18.782,87.55c0,0-0.185-0.042-0.544-0.102
	c5.33,15.237,36.962,122.611,39.878,152.978c13.928,144.571-83.137,274.229-222.086,307.012
	c108.608,56.696,234.582,83.831,366.073,71.174C1010.947,1013.596,1272.861,701.218,1241.678,348.951"/>
<path opacity="0.8" fill="#FFFFFF" d="M407.919,695.999c0,111.419-91.315,201.736-203.968,201.736
	C91.312,897.735,0,807.417,0,695.999C0,584.572,91.312,494.25,203.951,494.25C316.604,494.25,407.919,584.572,407.919,695.999"/>
</svg>
