<?xml version="1.0" encoding="utf-8"?>
<!-- Generator: Adobe Illustrator 16.0.0, SVG Export Plug-In . SVG Version: 6.00 Build 0)  -->
<!DOCTYPE svg PUBLIC "-//W3C//DTD SVG 1.1//EN" "http://www.w3.org/Graphics/SVG/1.1/DTD/svg11.dtd">
<svg version="1.1" id="Layer_1" xmlns="http://www.w3.org/2000/svg" xmlns:xlink="http://www.w3.org/1999/xlink" x="0px" y="0px"
	 width="912.761px" height="912.727px" viewBox="0 0 912.761 912.727" enable-background="new 0 0 912.761 912.727"
	 xml:space="preserve">
<path opacity="0.7" fill="#FFFFFF" d="M666.463,429.578c-12.348,43.614-37.377,79.489-67.441,111.992
	c-38.291,41.418-82.793,74.869-129.976,104.784c-3.431,2.172-6.584,4.782-9.864,7.162h-5.775
	c-7.971-5.382-15.894-10.857-23.921-16.17c-46.952-31.232-91.144-65.883-127.941-109.497
	c-24.915-29.499-45.323-61.724-55.731-99.702c-2.586-9.402-4.17-19.081-6.202-28.644v-28.045c0.565-2.587,1.235-5.151,1.675-7.762
	c7.08-40.564,27.824-71.52,63.828-90.162c13.246-6.837,28.506-9.656,42.839-14.321h25.999c2.264,0.647,4.518,1.432,6.805,1.871
	c31.981,5.798,58.051,31.531,74.233,61.193c0.472,0.832,0.657,1.824,1.397,4.02c16.03-30.748,39.294-57.313,69.774-64.059
	c4.192-0.923,8.327-2.009,12.476-3.025h25.999c2.079,0.508,4.135,1.178,6.237,1.57c35.747,6.561,64.057,24.902,83.357,56.528
	C675.715,352.583,677.562,390.515,666.463,429.578 M912.761,456.375C912.761,204.325,708.425,0,456.387,0
	C204.312,0,0.012,204.325,0.012,456.375c0,252.05,204.301,456.375,456.375,456.375C708.425,912.749,912.761,708.425,912.761,456.375
	"/>
<rect fill="none" width="2243.411" height="912.749"/>
</svg>
