<?xml version="1.0" encoding="utf-8"?>
<!-- Generator: Adobe Illustrator 16.0.0, SVG Export Plug-In . SVG Version: 6.00 Build 0)  -->
<!DOCTYPE svg PUBLIC "-//W3C//DTD SVG 1.1//EN" "http://www.w3.org/Graphics/SVG/1.1/DTD/svg11.dtd">
<svg version="1.1" id="Layer_1" xmlns="http://www.w3.org/2000/svg" xmlns:xlink="http://www.w3.org/1999/xlink" x="0px" y="0px"
	 width="1381.877px" height="975.219px" viewBox="0 0 1381.877 975.219" enable-background="new 0 0 1381.877 975.219"
	 xml:space="preserve">
<path opacity="0.7" fill="#FFFFFF" d="M1365.779,600.098c0,0-0.083-0.213-0.071-0.17c-12.508,59.396-65.206,103.988-128.321,103.988
	c-48.773,0-91.33-26.635-113.918-66.153c-0.143-0.28-0.271-0.562-0.398-0.854c-48.146-88.95-67.335-316.856-165.938-475.097
	l-0.08,0.049C890.189,64.637,778.174,0.885,651.26,0.885c-29.691,0-58.567,3.491-86.238,10.085
	c-35.417,9.148-68.927,22.677-99.877,39.93c-1.946,1.136-3.881,2.278-5.81,3.439l-0.092-0.09
	c-89.843,52.04-157.219,135.851-184.981,235.095l-0.205-0.227c-5.268,18.185-9.854,36.831-13.714,55.874l-1.33-1.393
	c-0.067,0.357-0.138,0.714-0.208,1.074C218.896,556.71,199.689,740.711,0,644.069c21.008,84.59,97.464,147.294,188.563,147.294
	c20.646,0,40.539-3.22,59.202-9.184v0.06c79.365-25.153,121.656-88.982,173.039-141.012c6.702-7.056,13.39-13.924,20.098-20.549
	c37.685-33.521,87.333-53.893,141.729-53.893c85.688,0,159.569,50.526,193.492,123.405l0.08-0.648
	c31.392,57.901,57.613,126.366,107.981,183.356l-0.045,0.018c51.568,62.473,129.604,102.303,216.938,102.303
	c110.288,0,205.733-63.501,251.787-155.93c18.87-37.771,29.013-80.107,29.013-125.199
	C1381.877,661.122,1376.205,629.487,1365.779,600.098z"/>
<path opacity="0.8" fill="#FFFFFF" d="M726.014,790.363c0,80.233-65.034,145.265-145.249,145.265
	c-80.233,0-145.267-65.031-145.267-145.265c0-80.221,65.033-145.258,145.267-145.258
	C660.979,645.105,726.014,710.142,726.014,790.363z"/>
</svg>
