<?xml version="1.0" encoding="utf-8"?>
<!-- Generator: Adobe Illustrator 16.0.0, SVG Export Plug-In . SVG Version: 6.00 Build 0)  -->
<!DOCTYPE svg PUBLIC "-//W3C//DTD SVG 1.1//EN" "http://www.w3.org/Graphics/SVG/1.1/DTD/svg11.dtd">
<svg version="1.1" id="Layer_1" xmlns="http://www.w3.org/2000/svg" xmlns:xlink="http://www.w3.org/1999/xlink" x="0px" y="0px"
	 width="1070.848px" height="1088px" viewBox="0 0 1070.848 1088" enable-background="new 0 0 1070.848 1088" xml:space="preserve">
<polygon opacity="0.7" fill="#FFFFFF" points="-10307.959,0.002 -10799.518,1024.541 -9816.424,1024.541 "/>
<polygon opacity="0.8" fill="#FFFFFF" points="-9964.57,457.504 -9622.767,1169.954 -9280.938,457.504 "/>
<path opacity="0.7" fill="#FFFFFF" d="M-7329.075,470.465c-22.864-212.86-215.316-367.93-431.938-347.07
	c-218.089,20.998-378.093,212.362-357.393,427.444c2.938,30.44,9.336,59.748,18.782,87.55c0,0-0.185-0.042-0.544-0.102
	c5.33,15.237,36.962,122.611,39.878,152.978c13.928,144.571-83.137,274.229-222.086,307.012
	c108.608,56.696,234.582,83.831,366.073,71.174C-7559.807,1135.11-7297.893,822.732-7329.075,470.465"/>
<path opacity="0.8" fill="#FFFFFF" d="M-8162.834,817.513c0,111.419-91.315,201.736-203.968,201.736
	c-112.639,0-203.951-90.317-203.951-201.736c0-111.427,91.312-201.748,203.951-201.748
	C-8254.149,615.765-8162.834,706.086-8162.834,817.513"/>
<polygon opacity="0.7" fill="#FFFFFF" points="-5893.685,604.189 -5893.685,139.316 -6358.558,139.316 -6358.558,1069.067 
	-5428.809,1069.067 -5428.809,604.189 "/>
<rect x="-5799.373" y="4.912" opacity="0.8" fill="#FFFFFF" width="498.359" height="498.357"/>
<polygon opacity="0.7" fill="#FFFFFF" points="-3762.784,-119.739 -4228.506,149.145 -4228.506,572.122 -4072.072,662.438 
	-4072.072,659.946 -3762.805,481.39 -3453.522,659.952 -3453.522,662.452 -3297.09,572.134 -3297.09,149.145 "/>
<polygon opacity="0.8" fill="#FFFFFF" points="-3529.83,988.486 -3762.805,1122.998 -3995.766,988.486 -3995.766,719.479 
	-3762.805,584.979 -3529.83,719.484 "/>
<path opacity="0.7" fill="#FFFFFF" d="M-894.568,615.314c0,0-0.083-0.213-0.071-0.17c-12.508,59.396-65.206,103.988-128.321,103.988
	c-48.773,0-91.33-26.635-113.918-66.153c-0.143-0.28-0.271-0.562-0.398-0.854c-48.146-88.95-67.335-316.856-165.938-475.097
	l-0.08,0.049c-66.862-97.224-178.878-160.976-305.792-160.976c-29.691,0-58.567,3.491-86.238,10.085
	c-35.417,9.148-68.927,22.677-99.877,39.93c-1.946,1.136-3.881,2.278-5.81,3.439l-0.092-0.09
	c-89.843,52.04-157.219,135.851-184.981,235.095l-0.205-0.227c-5.268,18.185-9.854,36.831-13.714,55.874l-1.33-1.393
	c-0.067,0.357-0.138,0.714-0.208,1.074c-39.908,212.036-59.115,396.037-258.805,299.395
	c21.008,84.59,97.464,147.294,188.563,147.294c20.646,0,40.539-3.22,59.202-9.184v0.06
	c79.365-25.153,121.656-88.982,173.039-141.012c6.702-7.056,13.39-13.924,20.098-20.549c37.685-33.521,87.333-53.893,141.729-53.893
	c85.688,0,159.569,50.526,193.492,123.405l0.08-0.648c31.392,57.901,57.613,126.366,107.981,183.356l-0.045,0.018
	c51.568,62.473,129.604,102.303,216.938,102.303c110.288,0,205.733-63.501,251.787-155.93
	c18.87-37.771,29.013-80.107,29.013-125.199C-878.471,676.338-884.143,644.703-894.568,615.314z"/>
<path opacity="0.8" fill="#FFFFFF" d="M-1534.334,805.579c0,80.233-65.034,145.265-145.249,145.265
	c-80.233,0-145.267-65.031-145.267-145.265c0-80.221,65.033-145.258,145.267-145.258
	C-1599.368,660.321-1534.334,725.358-1534.334,805.579z"/>
<g opacity="0.7">
	<g>
		<path fill="#FFFFFF" d="M526.502,1068.234C236.188,1068.234,0,832.039,0,541.715C0,251.402,236.188,15.216,526.502,15.216
			c290.316,0,526.51,236.186,526.51,526.499C1053.012,832.039,816.818,1068.234,526.502,1068.234z M526.502,131.018
			c-226.461,0-410.701,184.238-410.701,410.697c0,226.471,184.24,410.718,410.701,410.718
			c226.465,0,410.707-184.247,410.707-410.718C937.209,315.255,752.967,131.018,526.502,131.018z"/>
	</g>
</g>
</svg>
